<svg xmlns="http://www.w3.org/2000/svg" width="48" height="48" viewBox="0 0 48 48" fill="none">
  <path d="M21.1772 21.1772C18.8395 21.1772 16.4687 22.0654 14.5913 23.536C12.7139 25.0067 11.2722 27.1445 11.2722 29.6523V33.9003C11.2722 38.5757 15.0824 42.3754 19.7578 42.3754H28.2433C32.9187 42.3754 36.7288 38.5757 36.7288 33.9003V29.6523C36.7288 27.1445 35.2872 25.0067 33.4098 23.536C31.5324 22.0654 29.1615 21.1772 26.8238 21.1772C26.4527 21.1775 26.0966 21.3237 25.8323 21.5843L24.0057 23.4212L22.1688 21.5843C21.9045 21.3237 21.5484 21.1775 21.1772 21.1772ZM20.7389 24.1518L23.0038 26.4167C23.2687 26.68 23.627 26.8278 24.0005 26.8278C24.374 26.8278 24.7324 26.68 24.9973 26.4167L27.2622 24.1518C28.7413 24.2615 30.4066 24.7825 31.6667 25.7696C33.0519 26.8547 33.9003 28.2436 33.9003 29.6523V33.9003C33.9003 37.058 31.401 39.5469 28.2433 39.5469H19.7578C16.6001 39.5469 14.1007 37.058 14.1007 33.9003V29.6523C14.1007 28.2436 14.9491 26.8547 16.3343 25.7696C17.5945 24.7825 19.2598 24.2615 20.7389 24.1518ZM23.9953 5.62561C20.4981 5.62561 17.639 8.48472 17.639 11.9819C17.639 15.4792 20.4981 18.3487 23.9953 18.3487C27.4925 18.3487 30.3621 15.4792 30.3621 11.9819C30.3621 8.48472 27.4925 5.62561 23.9953 5.62561ZM23.9953 8.44369C25.9643 8.44369 27.5336 10.013 27.5336 11.9819C27.5336 13.9509 25.9643 15.5202 23.9953 15.5202C22.0264 15.5202 20.4675 13.9509 20.4675 11.9819C20.4675 10.013 22.0264 8.44369 23.9953 8.44369Z" fill="#303030"/>
  <path d="M31.6355 22.5654C31.3823 22.5607 31.1325 22.6241 30.9122 22.7489C30.6918 22.8738 30.5091 23.0555 30.383 23.2751L27.9511 27.3665L24.9973 24.4128C24.8673 24.2749 24.7109 24.1646 24.5375 24.0884C24.364 24.0121 24.1769 23.9716 23.9875 23.969C23.798 23.9665 23.6099 24.0021 23.4345 24.0737C23.259 24.1452 23.0998 24.2513 22.9661 24.3857C22.8325 24.52 22.7272 24.6799 22.6565 24.8557C22.5859 25.0315 22.5513 25.2197 22.5548 25.4092C22.5583 25.5987 22.5999 25.7855 22.677 25.9586C22.7541 26.1316 22.8653 26.2874 23.0038 26.4167L27.2414 30.6543C27.394 30.8059 27.5791 30.9206 27.7828 30.9899C27.9864 31.0591 28.2032 31.081 28.4165 31.0538C28.6299 31.0266 28.8343 30.9511 29.0141 30.8331C29.1939 30.715 29.3443 30.5575 29.4541 30.3725L32.8149 24.7259C32.9471 24.5133 33.0204 24.2695 33.0275 24.0192C33.0346 23.769 32.9751 23.5214 32.8552 23.3017C32.7353 23.082 32.5591 22.8981 32.3448 22.7687C32.1306 22.6393 31.8858 22.5692 31.6355 22.5654Z" fill="#303030"/>
  <path d="M16.3239 22.5758C16.0787 22.5878 15.8409 22.6633 15.6338 22.795C15.4267 22.9266 15.2575 23.11 15.1427 23.3269C15.0279 23.5438 14.9716 23.7869 14.9792 24.0322C14.9868 24.2775 15.0582 24.5165 15.1862 24.7259L18.547 30.3725C18.6567 30.5575 18.8072 30.715 18.987 30.8331C19.1668 30.9511 19.3712 31.0266 19.5845 31.0538C19.7979 31.081 20.0147 31.0591 20.2183 30.9899C20.422 30.9207 20.6071 30.8059 20.7597 30.6543L24.9973 26.4168C25.1358 26.2875 25.2469 26.1317 25.3241 25.9586C25.4012 25.7855 25.4428 25.5987 25.4463 25.4092C25.4498 25.2198 25.4152 25.0315 25.3445 24.8557C25.2739 24.6799 25.1686 24.5201 25.035 24.3857C24.9013 24.2514 24.7421 24.1453 24.5666 24.0737C24.3911 24.0021 24.2031 23.9665 24.0136 23.9691C23.8241 23.9716 23.6371 24.0122 23.4636 24.0884C23.2901 24.1646 23.1338 24.2749 23.0037 24.4128L20.05 27.3666L17.6181 23.2751C17.4873 23.051 17.2973 22.8673 17.0691 22.7439C16.8408 22.6206 16.583 22.5624 16.3239 22.5758ZM28.2433 32.4808C27.8682 32.4808 27.5085 32.6298 27.2432 32.8951C26.978 33.1603 26.829 33.52 26.829 33.8951C26.829 34.2702 26.978 34.6299 27.2432 34.8951C27.5085 35.1604 27.8682 35.3094 28.2433 35.3094H29.6523C30.0274 35.3094 30.3871 35.1604 30.6523 34.8951C30.9176 34.6299 31.0666 34.2702 31.0666 33.8951C31.0666 33.52 30.9176 33.1603 30.6523 32.8951C30.3871 32.6298 30.0274 32.4808 29.6523 32.4808H28.2433Z" fill="#303030"/>
</svg>